{"title":"Fail.Safe.2000.iNTERNAL.DVDRip.XviD-EXViDiNT","uid":6720051,"size":749076743,"categoryP":"video","categoryS":"movies","magnet":"?xt=urn:btih:14001ba113d48e239145fc1dfa67f6b4ce3d9979&amp;dn=Fail.Safe.2000.iNTERNAL.DVDRip.XviD-EXViDiNT&amp;tr=udp%3A%2F%2Ftracker.openbittorrent.com%3A80&amp;tr=udp%3A%2F%2Fopen.demonii.com%3A1337&amp;tr=udp%3A%2F%2Ftracker.coppersurfer.tk%3A6969&amp;tr=udp%3A%2F%2Fexodus.desync.com%3A6969","seeders":0,"leechers":1,"uploader":"TvTeam","files":7,"time":1317756086,"description":". \n  &lt;a href=&quot;\nhttp://www.torrenting.com/&quot; rel=&quot;nofollow&quot; target=&quot;_NEW&quot;&gt;\nhttp://www.torrenting.com/&lt;/a&gt;        :     Greatest Movie Tracker on The Net!!!\n &lt;a href=&quot;\nhttp://www.Torrenting.com&quot; rel=&quot;nofollow&quot; target=&quot;_NEW&quot;&gt;\nhttp://www.Torrenting.com&lt;/a&gt;          :     Once &amp; For all ;)\n\n\n               www . Torrenting . Com \n\n(((((((((((((= Enjoy No RAR releases =))))))))))))))))))))\n\n\n...................................NFO:....................................\n\n.                                                                                                     \n       \n     \n     \n       \n       \n     \n     \n                                         \n                                         \n                EXVID                    \n                                         \n         \n                                         \n         Filled the Archives             \n                                         \n         \n                                         \n                With:                    \n                                         \n         \n                                         \n                                    \n     E240                           \n                                    \n     SP               (C) 2009      \n                                         \n     \n     \n     \n                                                                                  \n                                                                                   \n              Fail.Safe.2000.iNTERNAL.DVDRip.XviD-EXViDiNT                          \n                                                                                   \n                                                                                  \n     \n                                                                                               \nEXViD aims to iNTERNAL those releases which have been lost in the archives.\nEXViD aims to PRE non-internal releases which have poor sources and are likely skipped by others. &lt;a href=&quot;\nhttp://www.imdb.com/title/tt0235376/&quot; rel=&quot;nofollow&quot; target=&quot;_NEW&quot;&gt;\nhttp://www.imdb.com/title/tt0235376/&lt;/a&gt;\nSubtitles: EN, FR, IT, NL, AR, ES, PT, DE, RO, BG, EN, IT\nDate: 2011.09\n\nDirector: Stephen Frears\n\nGenre: Drama | Thriller | War\n\nPlot:\nCold War tensions climb to a fever pitch when a U.S. bomber is accidentally ordered to drop a\nnuclear warhead on Moscow.\n\nCast:\nWalter Cronkite \t ... \t Himself - Host\nRichard Dreyfuss \t ... \t President\nNoah Wyle \t ... \t Buck\nBrian Dennehy \t ... \t Gen. Bogan\nSam Elliott \t ... \t Congressman Raskob\nJames Cromwell \t ... \t Gordon Knapp\nJohn Diehl \t ... \t Col. Cascio\nHank Azaria \t ... \t Prof. Groeteschele\nNorman Lloyd \t ... \t Defense Secretary Swenson\nBill Smitrovich \t ... \t Gen. Stark (as William Smitrovich)\nDon Cheadle \t ... \t Lt. Jimmy Pierce\nGeorge Clooney \t ... \t Col. Jack Grady\nHarvey Keitel \t ... \t Brig. Gen. Warren Black\nDoris Belack \t ... \t Mrs. Johnson\nGrant Heslov \t ... \t Jimmy\n\nStats:\nFormat                           : AVI\nFormat/Info                      : Audio Video Interleave\nFile size                        : 700 MiB\nDuration                         : 1h 24mn\nOverall bit rate                 : 1 160 Kbps\nWriting application              : Nandub v1.0rc2\nWriting library                  : Nandub build 1852/release\n\nVideo\nID                               : 0\nFormat                           : MPEG-4 Visual\nFormat profile                   : Advanced Simple@L5\nFormat settings, BVOP            : 1\nFormat settings, QPel            : No\nFormat settings, GMC             : No warppoints\nFormat settings, Matrix          : Default (H.263)\nCodec ID                         : XVID\nCodec ID/Hint                    : XviD\nDuration                         : 1h 24mn\nBit rate                         : 1 025 Kbps\nWidth                            : 624 pixels\nHeight                           : 352 pixels\nDisplay aspect ratio             : 16:9\nFrame rate                       : 25.000 fps\nColor space                      : YUV\nChroma subsampling               : 4:2:0\nBit depth                        : 8 bits\nScan type                        : Progressive\nCompression mode                 : Lossy\nBits/(Pixel*Frame)               : 0.187\nStream size                      : 619 MiB (88%)\nWriting library                  : XviD 64\n\nAudio\nID                               : 1\nFormat                           : MPEG Audio\nFormat version                   : Version 1\nFormat profile                   : Layer 3\nMode                             : Joint stereo\nMode extension                   : MS Stereo\nCodec ID                         : 55\nCodec ID/Hint                    : MP3\nDuration                         : 1h 24mn\nBit rate mode                    : Variable\nBit rate                         : 128 Kbps\nChannel(s)                       : 2 channels\nSampling rate                    : 48.0 KHz\nCompression mode                 : Lossy\nStream size                      : 73.8 MiB (11%)\nAlignment                        : Aligned on interleaves\nInterleave, duration             : 24 ms (0.60 video frame)\nInterleave, preload duration     : 426 ms\nWriting library                  : LAME3.98r\nEncoding settings                : -m j -V 4 -q 3 -lowpass 17 --abr 128\n\n\n\n\nRelease notes:\nThere was already an int by EwDp, but it has bad.ivtc as you can see in the included sample.\n\nenjoy!\n\nLooking for:\n75TB+ Archives\nDUTCH/FLEMiSH Archives\n                                                                                                    \nGreets: CRBS EPiSODE FiCO FLS iLS KLASSiGER LiPSYNC MADE NODLABS RUNNER SPRiNTER      \n   \n\n                                                                    ASCII DONE BY XX^NFO 2oo9","torrent":{"xt":"urn:btih:14001ba113d48e239145fc1dfa67f6b4ce3d9979","amp;dn":"Fail.Safe.2000.iNTERNAL.DVDRip.XviD-EXViDiNT","amp;tr":["udp%3A%2F%2Ftracker.openbittorrent.com%3A80","udp%3A%2F%2Fopen.demonii.com%3A1337","udp%3A%2F%2Ftracker.coppersurfer.tk%3A6969","udp%3A%2F%2Fexodus.desync.com%3A6969"],"infoHash":"14001ba113d48e239145fc1dfa67f6b4ce3d9979","infoHashBuffer":{"type":"Buffer","data":[20,0,27,161,19,212,142,35,145,69,252,29,250,103,246,180,206,61,153,121]},"announce":[],"urlList":[]}}